<svg width="1331" height="406" viewBox="0 0 1331 406" fill="none" xmlns="http://www.w3.org/2000/svg">
<path d="M145.084 348.521C126.95 348.521 111.084 345.008 97.4835 337.981C84.1102 330.728 73.7969 320.528 66.5435 307.381C59.2902 294.235 55.6635 278.708 55.6635 260.801C55.6635 242.895 59.2902 227.481 66.5435 214.561C73.7969 201.641 84.1102 191.781 97.4835 184.981C111.084 177.955 126.95 174.441 145.084 174.441C155.737 174.441 166.504 176.028 177.384 179.201C188.264 182.375 197.104 186.908 203.904 192.801L189.624 228.161C183.957 223.628 177.61 220.115 170.584 217.621C163.557 214.901 156.757 213.541 150.184 213.541C136.81 213.541 126.384 217.735 118.904 226.121C111.65 234.281 108.024 245.955 108.024 261.141C108.024 276.101 111.65 287.888 118.904 296.501C126.384 304.888 136.81 309.081 150.184 309.081C156.53 309.081 163.217 307.835 170.244 305.341C177.497 302.848 183.957 299.221 189.624 294.461L203.904 329.821C197.104 335.715 188.264 340.361 177.384 343.761C166.504 346.935 155.737 348.521 145.084 348.521ZM401.627 251.621C401.627 267.035 399.473 280.748 395.167 292.761C391.087 304.775 385.08 314.975 377.147 323.361C369.44 331.521 360.033 337.755 348.927 342.061C337.82 346.141 325.24 348.181 311.187 348.181C298.267 348.181 286.253 346.141 275.147 342.061C264.267 337.755 254.86 331.521 246.927 323.361C238.993 314.975 232.76 304.775 228.227 292.761C223.92 280.748 221.767 267.035 221.767 251.621C221.767 230.995 225.393 213.655 232.647 199.601C239.9 185.321 250.327 174.441 263.927 166.961C277.527 159.481 293.62 155.741 312.207 155.741C329.66 155.741 345.073 159.481 358.447 166.961C371.82 174.441 382.36 185.321 390.067 199.601C397.773 213.655 401.627 230.995 401.627 251.621ZM273.447 251.621C273.447 263.861 274.693 274.175 277.187 282.561C279.907 290.721 284.1 296.955 289.767 301.261C295.433 305.341 302.8 307.381 311.867 307.381C320.933 307.381 328.187 305.341 333.627 301.261C339.293 296.955 343.373 290.721 345.867 282.561C348.587 274.175 349.947 263.861 349.947 251.621C349.947 239.381 348.587 229.181 345.867 221.021C343.373 212.861 339.293 206.741 333.627 202.661C327.96 198.581 320.593 196.541 311.527 196.541C298.153 196.541 288.407 201.188 282.287 210.481C276.393 219.548 273.447 233.261 273.447 251.621ZM529.807 251.621C529.807 267.035 527.653 280.748 523.347 292.761C519.267 304.775 513.26 314.975 505.327 323.361C497.62 331.521 488.213 337.755 477.107 342.061C466 346.141 453.42 348.181 439.367 348.181C426.447 348.181 414.433 346.141 403.327 342.061C392.447 337.755 383.04 331.521 375.107 323.361C367.173 314.975 360.94 304.775 356.407 292.761C352.1 280.748 349.947 267.035 349.947 251.621C349.947 230.995 353.573 213.655 360.827 199.601C368.08 185.321 378.507 174.441 392.107 166.961C405.707 159.481 421.8 155.741 440.387 155.741C457.84 155.741 473.253 159.481 486.627 166.961C500 174.441 510.54 185.321 518.247 199.601C525.953 213.655 529.807 230.995 529.807 251.621ZM401.627 251.621C401.627 263.861 402.873 274.175 405.367 282.561C408.087 290.721 412.28 296.955 417.947 301.261C423.613 305.341 430.98 307.381 440.047 307.381C449.113 307.381 456.367 305.341 461.807 301.261C467.473 296.955 471.553 290.721 474.047 282.561C476.767 274.175 478.127 263.861 478.127 251.621C478.127 239.381 476.767 229.181 474.047 221.021C471.553 212.861 467.473 206.741 461.807 202.661C456.14 198.581 448.773 196.541 439.707 196.541C426.333 196.541 416.587 201.188 410.467 210.481C404.573 219.548 401.627 233.261 401.627 251.621ZM564.859 405.981V177.841H615.179V202.661C619.712 194.048 626.625 187.248 635.919 182.261C645.439 177.048 656.092 174.441 667.879 174.441C682.385 174.441 695.079 177.955 705.959 184.981C717.065 192.008 725.679 201.981 731.799 214.901C737.919 227.821 740.979 243.235 740.979 261.141C740.979 279.048 737.919 294.575 731.799 307.721C725.679 320.641 717.065 330.728 705.959 337.981C695.079 345.008 682.385 348.521 667.879 348.521C656.772 348.521 646.572 346.141 637.279 341.381C628.212 336.621 621.185 330.275 616.199 322.341V405.981H564.859ZM652.579 310.101C663.459 310.101 672.299 306.135 679.099 298.201C685.899 290.268 689.299 277.915 689.299 261.141C689.299 244.595 685.899 232.468 679.099 224.761C672.299 216.828 663.459 212.861 652.579 212.861C641.472 212.861 632.519 216.828 625.719 224.761C618.919 232.468 615.519 244.595 615.519 261.141C615.519 277.915 618.919 290.268 625.719 298.201C632.519 306.135 641.472 310.101 652.579 310.101ZM772.378 405.981V177.841H822.698V202.661C827.232 194.048 834.145 187.248 843.438 182.261C852.958 177.048 863.612 174.441 875.398 174.441C889.905 174.441 902.598 177.955 913.478 184.981C924.585 192.008 933.198 201.981 939.318 214.901C945.438 227.821 948.498 243.235 948.498 261.141C948.498 279.048 945.438 294.575 939.318 307.721C933.198 320.641 924.585 330.728 913.478 337.981C902.598 345.008 889.905 348.521 875.398 348.521C864.292 348.521 854.092 346.141 844.798 341.381C835.732 336.621 828.705 330.275 823.718 322.341V405.981H772.378ZM860.098 310.101C870.978 310.101 879.818 306.135 886.618 298.201C893.418 290.268 896.818 277.915 896.818 261.141C896.818 244.595 893.418 232.468 886.618 224.761C879.818 216.828 870.978 212.861 860.098 212.861C848.992 212.861 840.038 216.828 833.238 224.761C826.438 232.468 823.038 244.595 823.038 261.141C823.038 277.915 826.438 290.268 833.238 298.201C840.038 306.135 848.992 310.101 860.098 310.101ZM1066.6 348.521C1046.88 348.521 1029.88 345.008 1015.6 337.981C1001.54 330.728 990.664 320.641 982.958 307.721C975.478 294.575 971.738 279.161 971.738 261.481C971.738 244.255 975.364 229.181 982.618 216.261C990.098 203.115 1000.18 192.915 1012.88 185.661C1025.8 178.181 1040.64 174.441 1057.42 174.441C1081.67 174.441 1100.94 182.148 1115.22 197.561C1129.5 212.748 1136.64 233.375 1136.64 259.441V272.361H1020.7C1022.51 285.508 1027.27 295.141 1034.98 301.261C1042.91 307.155 1053.79 310.101 1067.62 310.101C1076.68 310.101 1085.86 308.741 1095.16 306.021C1104.45 303.301 1112.84 299.108 1120.32 293.441L1133.92 327.781C1125.53 334.128 1115.22 339.228 1102.98 343.081C1090.96 346.708 1078.84 348.521 1066.6 348.521ZM1059.46 208.441C1048.58 208.441 1039.74 211.728 1032.94 218.301C1026.36 224.875 1022.28 234.055 1020.7 245.841H1094.14C1092.78 220.908 1081.22 208.441 1059.46 208.441ZM1166.5 344.781V177.841H1216.82V206.741C1224.75 187.248 1241.75 176.481 1267.82 174.441L1282.78 173.421L1285.84 216.601L1256.94 219.661C1231.55 222.155 1218.86 235.075 1218.86 258.421V344.781H1166.5Z" fill="#191919"/>
<path d="M97.4835 337.981L97.0068 338.86L97.0156 338.865L97.0245 338.87L97.4835 337.981ZM66.5435 307.381L65.6679 307.864L65.6679 307.864L66.5435 307.381ZM66.5435 214.561L65.6715 214.072L65.6715 214.072L66.5435 214.561ZM97.4835 184.981L97.9368 185.873L97.9425 185.87L97.4835 184.981ZM177.384 179.201L177.104 180.161L177.104 180.161L177.384 179.201ZM203.904 192.801L204.831 193.176L205.098 192.513L204.558 192.046L203.904 192.801ZM189.624 228.161L188.999 228.942L190.048 229.781L190.551 228.536L189.624 228.161ZM170.584 217.621L170.223 218.554L170.236 218.559L170.249 218.564L170.584 217.621ZM118.904 226.121L118.157 225.456L118.156 225.457L118.904 226.121ZM118.904 296.501L118.139 297.145L118.148 297.156L118.157 297.167L118.904 296.501ZM170.244 305.341L169.918 304.396L169.909 304.399L170.244 305.341ZM189.624 294.461L190.551 294.087L190.035 292.81L188.98 293.696L189.624 294.461ZM203.904 329.821L204.558 330.577L205.098 330.109L204.831 329.447L203.904 329.821ZM177.384 343.761L177.664 344.721L177.673 344.719L177.682 344.716L177.384 343.761ZM145.084 347.521C127.081 347.521 111.377 344.034 97.9425 337.093L97.0245 338.87C110.79 345.982 126.82 349.521 145.084 349.521V347.521ZM97.9603 337.102C84.7526 329.939 74.5788 319.875 67.4191 306.898L65.6679 307.864C73.0149 321.181 83.4677 331.517 97.0068 338.86L97.9603 337.102ZM67.4191 306.898C60.2618 293.926 56.6635 278.571 56.6635 260.801H54.6635C54.6635 278.844 58.3186 294.544 65.6679 307.864L67.4191 306.898ZM56.6635 260.801C56.6635 243.03 60.262 227.793 67.4155 215.051L65.6715 214.072C58.3184 227.169 54.6635 242.759 54.6635 260.801H56.6635ZM67.4155 215.051C74.5708 202.305 84.7373 192.584 97.9368 185.873L97.0303 184.09C83.4831 190.978 73.0229 200.977 65.6715 214.072L67.4155 215.051ZM97.9425 185.87C111.377 178.929 127.081 175.441 145.084 175.441V173.441C126.82 173.441 110.79 176.98 97.0245 184.093L97.9425 185.87ZM145.084 175.441C155.636 175.441 166.309 177.013 177.104 180.161L177.664 178.241C166.698 175.043 155.837 173.441 145.084 173.441V175.441ZM177.104 180.161C187.88 183.304 196.582 187.779 203.249 193.557L204.558 192.046C197.625 186.037 188.647 181.445 177.664 178.241L177.104 180.161ZM202.976 192.427L188.696 227.787L190.551 228.536L204.831 193.176L202.976 192.427ZM190.248 227.38C184.492 222.775 178.047 219.208 170.918 216.679L170.249 218.564C177.174 221.021 183.422 224.48 188.999 228.942L190.248 227.38ZM170.945 216.689C163.819 213.931 156.897 212.541 150.184 212.541V214.541C156.617 214.541 163.294 215.872 170.223 218.554L170.945 216.689ZM150.184 212.541C136.584 212.541 125.863 216.816 118.157 225.456L119.65 226.787C126.904 218.653 137.036 214.541 150.184 214.541V212.541ZM118.156 225.457C110.686 233.861 107.024 245.805 107.024 261.141H109.024C109.024 246.104 112.614 234.702 119.651 226.786L118.156 225.457ZM107.024 261.141C107.024 276.259 110.69 288.3 118.139 297.145L119.668 295.857C112.611 287.476 109.024 275.944 109.024 261.141H107.024ZM118.157 297.167C125.863 305.807 136.584 310.081 150.184 310.081V308.081C137.036 308.081 126.904 303.969 119.65 295.836L118.157 297.167ZM150.184 310.081C156.662 310.081 163.462 308.809 170.578 306.284L169.909 304.399C162.971 306.861 156.398 308.081 150.184 308.081V310.081ZM170.569 306.287C177.934 303.755 184.503 300.069 190.267 295.227L188.98 293.696C183.411 298.374 177.06 301.941 169.918 304.396L170.569 306.287ZM188.696 294.836L202.976 330.196L204.831 329.447L190.551 294.087L188.696 294.836ZM203.249 329.066C196.576 334.848 187.868 339.437 177.085 342.807L177.682 344.716C188.659 341.285 197.631 336.581 204.558 330.577L203.249 329.066ZM177.104 342.801C166.309 345.95 155.636 347.521 145.084 347.521V349.521C155.837 349.521 166.698 347.919 177.664 344.721L177.104 342.801ZM395.167 292.761L394.225 292.424L394.223 292.432L394.22 292.44L395.167 292.761ZM377.147 323.361L376.42 322.674L376.42 322.675L377.147 323.361ZM348.927 342.061L349.272 343L349.28 342.997L349.288 342.994L348.927 342.061ZM275.147 342.061L274.779 342.991L274.79 342.996L274.802 343L275.147 342.061ZM246.927 323.361L246.2 324.049L246.21 324.058L246.927 323.361ZM228.227 292.761L227.285 293.099L227.288 293.107L227.291 293.114L228.227 292.761ZM232.647 199.601L233.535 200.06L233.538 200.054L232.647 199.601ZM263.927 166.961L264.409 167.837L264.409 167.837L263.927 166.961ZM358.447 166.961L357.959 167.834L357.959 167.834L358.447 166.961ZM390.067 199.601L389.187 200.076L389.19 200.082L390.067 199.601ZM277.187 282.561L276.228 282.846L276.233 282.862L276.238 282.877L277.187 282.561ZM289.767 301.261L289.162 302.057L289.172 302.065L289.182 302.073L289.767 301.261ZM333.627 301.261L334.227 302.061L334.232 302.057L333.627 301.261ZM345.867 282.561L344.916 282.253L344.913 282.261L344.91 282.269L345.867 282.561ZM345.867 221.021L344.91 221.313L344.914 221.326L344.918 221.337L345.867 221.021ZM333.627 202.661L334.211 201.85L333.627 202.661ZM282.287 210.481L281.452 209.931L281.448 209.936L282.287 210.481ZM523.347 292.761L522.405 292.424L522.403 292.432L522.4 292.44L523.347 292.761ZM505.327 323.361L504.6 322.674L504.6 322.675L505.327 323.361ZM477.107 342.061L477.452 343L477.46 342.997L477.468 342.994L477.107 342.061ZM403.327 342.061L402.959 342.991L402.97 342.996L402.982 343L403.327 342.061ZM375.107 323.361L374.38 324.049L374.39 324.058L375.107 323.361ZM356.407 292.761L355.465 293.099L355.468 293.107L355.471 293.114L356.407 292.761ZM360.827 199.601L361.715 200.06L361.718 200.054L360.827 199.601ZM392.107 166.961L392.589 167.837L392.589 167.837L392.107 166.961ZM486.627 166.961L486.139 167.834L486.139 167.834L486.627 166.961ZM518.247 199.601L517.367 200.076L517.37 200.082L518.247 199.601ZM405.367 282.561L404.408 282.846L404.413 282.862L404.418 282.877L405.367 282.561ZM417.947 301.261L417.342 302.057L417.352 302.065L417.363 302.073L417.947 301.261ZM461.807 301.261L462.407 302.061L462.412 302.057L461.807 301.261ZM474.047 282.561L473.096 282.253L473.093 282.261L473.09 282.269L474.047 282.561ZM474.047 221.021L473.09 221.313L473.094 221.326L473.098 221.337L474.047 221.021ZM461.807 202.661L462.391 201.85L462.391 201.85L461.807 202.661ZM410.467 210.481L409.632 209.931L409.628 209.936L410.467 210.481ZM400.627 251.621C400.627 266.943 398.486 280.539 394.225 292.424L396.108 293.099C400.461 280.957 402.627 267.126 402.627 251.621H400.627ZM394.22 292.44C390.182 304.33 384.245 314.402 376.42 322.674L377.873 324.048C385.915 315.547 391.992 305.219 396.114 293.083L394.22 292.44ZM376.42 322.675C368.821 330.72 359.542 336.873 348.565 341.129L349.288 342.994C360.525 338.637 370.059 332.323 377.874 324.048L376.42 322.675ZM348.582 341.123C337.604 345.155 325.144 347.181 311.187 347.181V349.181C325.336 349.181 338.036 347.127 349.272 343L348.582 341.123ZM311.187 347.181C298.374 347.181 286.478 345.158 275.492 341.123L274.802 343C286.029 347.124 298.16 349.181 311.187 349.181V347.181ZM275.515 341.131C264.763 336.875 255.476 330.72 247.644 322.664L246.21 324.058C254.245 332.323 263.771 338.634 274.779 342.991L275.515 341.131ZM247.653 322.674C239.821 314.394 233.654 304.311 229.162 292.408L227.291 293.114C231.866 305.238 238.166 315.555 246.2 324.048L247.653 322.674ZM229.168 292.424C224.907 280.539 222.767 266.943 222.767 251.621H220.767C220.767 267.126 222.933 280.957 227.285 293.099L229.168 292.424ZM222.767 251.621C222.767 231.107 226.374 213.935 233.535 200.06L231.758 199.143C224.413 213.374 220.767 230.882 220.767 251.621H222.767ZM233.538 200.054C240.704 185.947 250.991 175.217 264.409 167.837L263.445 166.085C249.663 173.665 239.096 184.695 231.755 199.148L233.538 200.054ZM264.409 167.837C277.834 160.453 293.755 156.741 312.207 156.741V154.741C293.485 154.741 277.219 158.509 263.445 166.085L264.409 167.837ZM312.207 156.741C329.513 156.741 344.754 160.448 357.959 167.834L358.935 166.088C345.393 158.514 329.807 154.741 312.207 154.741V156.741ZM357.959 167.834C371.156 175.216 381.565 185.953 389.187 200.076L390.947 199.126C383.156 184.69 372.484 173.667 358.935 166.088L357.959 167.834ZM389.19 200.082C396.796 213.952 400.627 231.116 400.627 251.621H402.627C402.627 230.873 398.751 213.357 390.944 199.12L389.19 200.082ZM272.447 251.621C272.447 263.922 273.699 274.338 276.228 282.846L278.145 282.276C275.688 274.011 274.447 263.8 274.447 251.621H272.447ZM276.238 282.877C279.008 291.188 283.304 297.606 289.162 302.057L290.372 300.465C284.896 296.304 280.805 290.255 278.135 282.245L276.238 282.877ZM289.182 302.073C295.064 306.307 302.653 308.381 311.867 308.381V306.381C302.947 306.381 295.803 304.375 290.351 300.45L289.182 302.073ZM311.867 308.381C321.078 308.381 328.564 306.308 334.227 302.061L333.027 300.461C327.81 304.374 320.789 306.381 311.867 306.381V308.381ZM334.232 302.057C340.097 297.6 344.281 291.173 346.823 282.853L344.91 282.269C342.466 290.269 338.49 296.309 333.022 300.465L334.232 302.057ZM346.818 282.87C349.58 274.353 350.947 263.928 350.947 251.621H348.947C348.947 263.794 347.593 273.996 344.916 282.253L346.818 282.87ZM350.947 251.621C350.947 239.315 349.581 229 346.815 220.705L344.918 221.337C347.593 229.362 348.947 239.447 348.947 251.621H350.947ZM346.823 220.729C344.28 212.407 340.092 206.084 334.211 201.85L333.042 203.473C338.495 207.399 342.466 213.315 344.91 221.313L346.823 220.729ZM334.211 201.85C328.33 197.615 320.741 195.541 311.527 195.541V197.541C320.446 197.541 327.591 199.547 333.042 203.473L334.211 201.85ZM311.527 195.541C297.895 195.541 287.796 200.297 281.452 209.931L283.122 211.031C289.018 202.078 298.412 197.541 311.527 197.541V195.541ZM281.448 209.936C275.399 219.243 272.447 233.188 272.447 251.621H274.447C274.447 233.335 277.388 219.853 283.125 211.026L281.448 209.936ZM528.807 251.621C528.807 266.943 526.666 280.539 522.405 292.424L524.288 293.099C528.641 280.957 530.807 267.126 530.807 251.621H528.807ZM522.4 292.44C518.362 304.33 512.425 314.402 504.6 322.674L506.053 324.048C514.095 315.547 520.172 305.219 524.294 293.083L522.4 292.44ZM504.6 322.675C497.001 330.72 487.722 336.873 476.745 341.129L477.468 342.994C488.705 338.637 498.239 332.323 506.054 324.048L504.6 322.675ZM476.762 341.123C465.784 345.155 453.324 347.181 439.367 347.181V349.181C453.516 349.181 466.216 347.127 477.452 343L476.762 341.123ZM439.367 347.181C426.554 347.181 414.658 345.158 403.672 341.123L402.982 343C414.209 347.124 426.34 349.181 439.367 349.181V347.181ZM403.695 341.131C392.943 336.875 383.656 330.72 375.824 322.664L374.39 324.058C382.425 332.323 391.951 338.634 402.959 342.991L403.695 341.131ZM375.833 322.674C368.001 314.394 361.834 304.311 357.342 292.408L355.471 293.114C360.046 305.238 366.346 315.555 374.38 324.048L375.833 322.674ZM357.348 292.424C353.087 280.539 350.947 266.943 350.947 251.621H348.947C348.947 267.126 351.113 280.957 355.465 293.099L357.348 292.424ZM350.947 251.621C350.947 231.107 354.554 213.935 361.715 200.06L359.938 199.143C352.593 213.374 348.947 230.882 348.947 251.621H350.947ZM361.718 200.054C368.884 185.947 379.171 175.217 392.589 167.837L391.625 166.085C377.843 173.665 367.276 184.695 359.935 199.148L361.718 200.054ZM392.589 167.837C406.014 160.453 421.935 156.741 440.387 156.741V154.741C421.665 154.741 405.399 158.509 391.625 166.085L392.589 167.837ZM440.387 156.741C457.693 156.741 472.934 160.448 486.139 167.834L487.115 166.088C473.573 158.514 457.987 154.741 440.387 154.741V156.741ZM486.139 167.834C499.336 175.216 509.745 185.953 517.367 200.076L519.127 199.126C511.336 184.69 500.664 173.667 487.115 166.088L486.139 167.834ZM517.37 200.082C524.976 213.952 528.807 231.116 528.807 251.621H530.807C530.807 230.873 526.931 213.357 519.124 199.12L517.37 200.082ZM400.627 251.621C400.627 263.922 401.879 274.338 404.408 282.846L406.325 282.276C403.868 274.011 402.627 263.8 402.627 251.621H400.627ZM404.418 282.877C407.188 291.188 411.484 297.606 417.342 302.057L418.552 300.465C413.076 296.304 408.985 290.255 406.315 282.245L404.418 282.877ZM417.363 302.073C423.244 306.307 430.833 308.381 440.047 308.381V306.381C431.127 306.381 423.983 304.375 418.531 300.45L417.363 302.073ZM440.047 308.381C449.258 308.381 456.744 306.308 462.407 302.061L461.207 300.461C455.99 304.374 448.969 306.381 440.047 306.381V308.381ZM462.412 302.057C468.277 297.6 472.461 291.173 475.003 282.853L473.09 282.269C470.646 290.269 466.67 296.309 461.202 300.465L462.412 302.057ZM474.998 282.87C477.76 274.353 479.127 263.928 479.127 251.621H477.127C477.127 263.794 475.773 273.996 473.096 282.253L474.998 282.87ZM479.127 251.621C479.127 239.315 477.761 229 474.996 220.705L473.098 221.337C475.773 229.362 477.127 239.447 477.127 251.621H479.127ZM475.003 220.729C472.46 212.407 468.272 206.084 462.391 201.85L461.223 203.473C466.675 207.399 470.646 213.315 473.09 221.313L475.003 220.729ZM462.391 201.85C456.51 197.615 448.921 195.541 439.707 195.541V197.541C448.626 197.541 455.771 199.547 461.223 203.473L462.391 201.85ZM439.707 195.541C426.075 195.541 415.976 200.297 409.632 209.931L411.302 211.031C417.198 202.078 426.592 197.541 439.707 197.541V195.541ZM409.628 209.936C403.579 219.243 400.627 233.188 400.627 251.621H402.627C402.627 233.335 405.568 219.853 411.305 211.026L409.628 209.936ZM564.859 405.981H563.859V406.981H564.859V405.981ZM564.859 177.841V176.841H563.859V177.841H564.859ZM615.179 177.841H616.179V176.841H615.179V177.841ZM615.179 202.661H614.179L616.064 203.127L615.179 202.661ZM635.919 182.261L636.392 183.142L636.399 183.138L635.919 182.261ZM705.959 184.981L705.416 185.821L705.424 185.826L705.959 184.981ZM731.799 214.901L732.702 214.473L732.702 214.473L731.799 214.901ZM731.799 307.721L732.702 308.149L732.705 308.143L731.799 307.721ZM705.959 337.981L706.501 338.821L706.505 338.819L705.959 337.981ZM637.279 341.381L636.814 342.267L636.823 342.271L637.279 341.381ZM616.199 322.341L617.045 321.809L615.199 318.871V322.341H616.199ZM616.199 405.981V406.981H617.199V405.981H616.199ZM679.099 298.201L678.339 297.55L678.339 297.55L679.099 298.201ZM679.099 224.761L678.339 225.412L678.344 225.417L678.349 225.423L679.099 224.761ZM625.719 224.761L626.469 225.423L626.473 225.417L626.478 225.412L625.719 224.761ZM625.719 298.201L626.478 297.55L626.478 297.55L625.719 298.201ZM565.859 405.981V177.841H563.859V405.981H565.859ZM564.859 178.841H615.179V176.841H564.859V178.841ZM614.179 177.841V202.661H616.179V177.841H614.179ZM616.064 203.127C620.496 194.705 627.258 188.043 636.391 183.142L635.446 181.38C625.992 186.453 618.928 193.391 614.294 202.195L616.064 203.127ZM636.399 183.138C645.759 178.012 656.245 175.441 667.879 175.441V173.441C655.939 173.441 645.118 176.083 635.438 181.384L636.399 183.138ZM667.879 175.441C682.217 175.441 694.717 178.911 705.416 185.821L706.501 184.141C695.441 176.998 682.554 173.441 667.879 173.441V175.441ZM705.424 185.826C716.357 192.743 724.849 202.565 730.895 215.329L732.702 214.473C726.509 201.398 717.774 191.273 706.493 184.136L705.424 185.826ZM730.895 215.329C736.938 228.086 739.979 243.346 739.979 261.141H741.979C741.979 243.123 738.9 227.556 732.702 214.473L730.895 215.329ZM739.979 261.141C739.979 278.936 736.938 294.312 730.892 307.299L732.705 308.143C738.899 294.837 741.979 279.16 741.979 261.141H739.979ZM730.895 307.293C724.848 320.06 716.352 329.999 705.412 337.144L706.505 338.819C717.779 331.456 726.51 321.223 732.702 308.149L730.895 307.293ZM705.416 337.141C694.717 344.051 682.217 347.521 667.879 347.521V349.521C682.554 349.521 695.441 345.965 706.501 338.821L705.416 337.141ZM667.879 347.521C656.92 347.521 646.878 345.174 637.735 340.491L636.823 342.271C646.266 347.108 656.624 349.521 667.879 349.521V347.521ZM637.744 340.496C628.818 335.81 621.93 329.579 617.045 321.809L615.352 322.873C620.441 330.97 627.606 337.432 636.814 342.267L637.744 340.496ZM615.199 322.341V405.981H617.199V322.341H615.199ZM616.199 404.981H564.859V406.981H616.199V404.981ZM652.579 311.101C663.737 311.101 672.859 307.017 679.858 298.852L678.339 297.55C671.738 305.252 663.181 309.101 652.579 309.101V311.101ZM679.858 298.852C686.883 290.656 690.299 278.017 690.299 261.141H688.299C688.299 277.812 684.914 289.88 678.339 297.55L679.858 298.852ZM690.299 261.141C690.299 244.491 686.883 232.072 679.849 224.1L678.349 225.423C684.914 232.864 688.299 244.698 688.299 261.141H690.299ZM679.858 224.11C672.859 215.945 663.737 211.861 652.579 211.861V213.861C663.181 213.861 671.738 217.711 678.339 225.412L679.858 224.11ZM652.579 211.861C641.201 211.861 631.963 215.94 624.959 224.11L626.478 225.412C633.075 217.716 641.743 213.861 652.579 213.861V211.861ZM624.969 224.1C617.934 232.072 614.519 244.491 614.519 261.141H616.519C616.519 244.698 619.903 232.864 626.469 225.423L624.969 224.1ZM614.519 261.141C614.519 278.017 617.934 290.656 624.959 298.852L626.478 297.55C619.903 289.88 616.519 277.812 616.519 261.141H614.519ZM624.959 298.852C631.963 307.022 641.201 311.101 652.579 311.101V309.101C641.743 309.101 633.075 305.247 626.478 297.55L624.959 298.852ZM772.378 405.981H771.378V406.981H772.378V405.981ZM772.378 177.841V176.841H771.378V177.841H772.378ZM822.698 177.841H823.698V176.841H822.698V177.841ZM822.698 202.661H821.698L823.583 203.127L822.698 202.661ZM843.438 182.261L843.911 183.142L843.919 183.138L843.438 182.261ZM913.478 184.981L912.936 185.821L912.944 185.826L913.478 184.981ZM939.318 214.901L940.222 214.473L940.222 214.473L939.318 214.901ZM939.318 307.721L940.222 308.149L940.225 308.143L939.318 307.721ZM913.478 337.981L914.021 338.821L914.025 338.819L913.478 337.981ZM844.798 341.381L844.333 342.267L844.342 342.271L844.798 341.381ZM823.718 322.341L824.565 321.809L822.718 318.871V322.341H823.718ZM823.718 405.981V406.981H824.718V405.981H823.718ZM886.618 298.201L885.859 297.55L885.859 297.55L886.618 298.201ZM886.618 224.761L885.859 225.412L885.864 225.417L885.868 225.423L886.618 224.761ZM833.238 224.761L833.988 225.423L833.993 225.417L833.997 225.412L833.238 224.761ZM833.238 298.201L833.997 297.55L833.997 297.55L833.238 298.201ZM773.378 405.981V177.841H771.378V405.981H773.378ZM772.378 178.841H822.698V176.841H772.378V178.841ZM821.698 177.841V202.661H823.698V177.841H821.698ZM823.583 203.127C828.016 194.705 834.778 188.043 843.911 183.142L842.965 181.38C833.512 186.453 826.447 193.391 821.813 202.195L823.583 203.127ZM843.919 183.138C853.279 178.012 863.765 175.441 875.398 175.441V173.441C863.458 173.441 852.638 176.083 842.958 181.384L843.919 183.138ZM875.398 175.441C889.736 175.441 902.236 178.911 912.936 185.821L914.021 184.141C902.96 176.998 890.073 173.441 875.398 173.441V175.441ZM912.944 185.826C923.876 192.743 932.368 202.565 938.414 215.329L940.222 214.473C934.028 201.398 925.294 191.273 914.013 184.136L912.944 185.826ZM938.414 215.329C944.457 228.086 947.498 243.346 947.498 261.141H949.498C949.498 243.123 946.419 227.556 940.222 214.473L938.414 215.329ZM947.498 261.141C947.498 278.936 944.457 294.312 938.412 307.299L940.225 308.143C946.419 294.837 949.498 279.16 949.498 261.141H947.498ZM938.414 307.293C932.367 320.06 923.872 329.999 912.931 337.144L914.025 338.819C925.298 331.456 934.029 321.223 940.222 308.149L938.414 307.293ZM912.936 337.141C902.236 344.051 889.736 347.521 875.398 347.521V349.521C890.073 349.521 902.96 345.965 914.021 338.821L912.936 337.141ZM875.398 347.521C864.44 347.521 854.397 345.174 845.254 340.491L844.342 342.271C853.786 347.108 864.143 349.521 875.398 349.521V347.521ZM845.263 340.496C836.338 335.81 829.449 329.579 824.565 321.809L822.872 322.873C827.961 330.97 835.125 337.432 844.333 342.267L845.263 340.496ZM822.718 322.341V405.981H824.718V322.341H822.718ZM823.718 404.981H772.378V406.981H823.718V404.981ZM860.098 311.101C871.256 311.101 880.379 307.017 887.377 298.852L885.859 297.55C879.258 305.252 870.7 309.101 860.098 309.101V311.101ZM887.377 298.852C894.403 290.656 897.818 278.017 897.818 261.141H895.818C895.818 277.812 892.434 289.88 885.859 297.55L887.377 298.852ZM897.818 261.141C897.818 244.491 894.403 232.072 887.368 224.1L885.868 225.423C892.434 232.864 895.818 244.698 895.818 261.141H897.818ZM887.377 224.11C880.379 215.945 871.256 211.861 860.098 211.861V213.861C870.7 213.861 879.258 217.711 885.859 225.412L887.377 224.11ZM860.098 211.861C848.721 211.861 839.482 215.94 832.479 224.11L833.997 225.412C840.594 217.716 849.263 213.861 860.098 213.861V211.861ZM832.488 224.1C825.454 232.072 822.038 244.491 822.038 261.141H824.038C824.038 244.698 827.423 232.864 833.988 225.423L832.488 224.1ZM822.038 261.141C822.038 278.017 825.454 290.656 832.479 298.852L833.997 297.55C827.423 289.88 824.038 277.812 824.038 261.141H822.038ZM832.479 298.852C839.482 307.022 848.721 311.101 860.098 311.101V309.101C849.263 309.101 840.594 305.247 833.997 297.55L832.479 298.852ZM1015.6 337.981L1015.14 338.87L1015.15 338.874L1015.16 338.879L1015.6 337.981ZM982.958 307.721L982.089 308.216L982.094 308.225L982.099 308.234L982.958 307.721ZM982.618 216.261L981.749 215.767L981.746 215.772L982.618 216.261ZM1012.88 185.661L1013.37 186.529L1013.38 186.527L1012.88 185.661ZM1115.22 197.561L1114.48 198.241L1114.49 198.246L1115.22 197.561ZM1136.64 272.361V273.361H1137.64V272.361H1136.64ZM1020.7 272.361V271.361H1019.55L1019.71 272.498L1020.7 272.361ZM1034.98 301.261L1034.36 302.044L1034.37 302.054L1034.38 302.064L1034.98 301.261ZM1095.16 306.021L1094.88 305.062L1094.88 305.062L1095.16 306.021ZM1120.32 293.441L1121.25 293.073L1120.76 291.849L1119.71 292.644L1120.32 293.441ZM1133.92 327.781L1134.52 328.579L1135.13 328.12L1134.85 327.413L1133.92 327.781ZM1102.98 343.081L1103.27 344.039L1103.28 344.035L1102.98 343.081ZM1032.94 218.301L1032.24 217.582L1032.24 217.588L1032.23 217.594L1032.94 218.301ZM1020.7 245.841L1019.71 245.708L1019.55 246.841H1020.7V245.841ZM1094.14 245.841V246.841H1095.19L1095.14 245.787L1094.14 245.841ZM1066.6 347.521C1047 347.521 1030.15 344.029 1016.04 337.084L1015.16 338.879C1029.6 345.987 1046.76 349.521 1066.6 349.521V347.521ZM1016.06 337.093C1002.16 329.92 991.423 319.96 983.817 307.209L982.099 308.234C989.906 321.322 1000.93 331.536 1015.14 338.87L1016.06 337.093ZM983.827 307.227C976.446 294.254 972.738 279.017 972.738 261.481H970.738C970.738 279.305 974.509 294.895 982.089 308.216L983.827 307.227ZM972.738 261.481C972.738 244.398 976.333 229.499 983.49 216.751L981.746 215.772C974.396 228.864 970.738 244.111 970.738 261.481H972.738ZM983.487 216.756C990.881 203.759 1000.84 193.691 1013.37 186.529L1012.38 184.793C999.527 192.138 989.314 202.47 981.749 215.767L983.487 216.756ZM1013.38 186.527C1026.13 179.145 1040.8 175.441 1057.42 175.441V173.441C1040.49 173.441 1025.47 177.217 1012.38 184.796L1013.38 186.527ZM1057.42 175.441C1081.44 175.441 1100.42 183.064 1114.48 198.241L1115.95 196.882C1101.45 181.232 1081.9 173.441 1057.42 173.441V175.441ZM1114.49 198.246C1128.55 213.204 1135.64 233.562 1135.64 259.441H1137.64C1137.64 233.187 1130.44 212.292 1115.95 196.876L1114.49 198.246ZM1135.64 259.441V272.361H1137.64V259.441H1135.64ZM1136.64 271.361H1020.7V273.361H1136.64V271.361ZM1019.71 272.498C1021.54 285.809 1026.39 295.715 1034.36 302.044L1035.6 300.478C1028.16 294.567 1023.48 285.207 1021.69 272.225L1019.71 272.498ZM1034.38 302.064C1042.54 308.128 1053.66 311.101 1067.62 311.101V309.101C1053.92 309.101 1043.28 306.182 1035.57 300.459L1034.38 302.064ZM1067.62 311.101C1076.79 311.101 1086.06 309.726 1095.44 306.981L1094.88 305.062C1085.67 307.757 1076.58 309.101 1067.62 309.101V311.101ZM1095.44 306.981C1104.84 304.228 1113.34 299.981 1120.92 294.238L1119.71 292.644C1112.33 298.235 1104.06 302.375 1094.88 305.062L1095.44 306.981ZM1119.39 293.809L1132.99 328.149L1134.85 327.413L1121.25 293.073L1119.39 293.809ZM1133.31 326.984C1125.04 333.248 1114.83 338.301 1102.68 342.127L1103.28 344.035C1115.6 340.155 1126.03 335.008 1134.52 328.579L1133.31 326.984ZM1102.69 342.124C1090.77 345.723 1078.74 347.521 1066.6 347.521V349.521C1078.94 349.521 1091.16 347.693 1103.27 344.039L1102.69 342.124ZM1059.46 207.441C1048.36 207.441 1039.26 210.801 1032.24 217.582L1033.63 219.02C1040.22 212.654 1048.8 209.441 1059.46 209.441V207.441ZM1032.23 217.594C1025.46 224.361 1021.31 233.765 1019.71 245.708L1021.69 245.975C1023.25 234.344 1027.27 225.388 1033.64 219.008L1032.23 217.594ZM1020.7 246.841H1094.14V244.841H1020.7V246.841ZM1095.14 245.787C1094.45 233.193 1091.18 223.58 1085.18 217.111C1079.16 210.62 1070.53 207.441 1059.46 207.441V209.441C1070.14 209.441 1078.17 212.496 1083.71 218.471C1089.28 224.469 1092.47 233.556 1093.14 245.896L1095.14 245.787ZM1166.5 344.781H1165.5V345.781H1166.5V344.781ZM1166.5 177.841V176.841H1165.5V177.841H1166.5ZM1216.82 177.841H1217.82V176.841H1216.82V177.841ZM1216.82 206.741H1215.82L1217.75 207.118L1216.82 206.741ZM1267.82 174.441L1267.75 173.444L1267.74 173.444L1267.82 174.441ZM1282.78 173.421L1283.78 173.351L1283.71 172.356L1282.71 172.424L1282.78 173.421ZM1285.84 216.601L1285.94 217.596L1286.91 217.494L1286.84 216.531L1285.84 216.601ZM1256.94 219.661L1257.04 220.656L1257.04 220.656L1256.94 219.661ZM1218.86 344.781V345.781H1219.86V344.781H1218.86ZM1167.5 344.781V177.841H1165.5V344.781H1167.5ZM1166.5 178.841H1216.82V176.841H1166.5V178.841ZM1215.82 177.841V206.741H1217.82V177.841H1215.82ZM1217.75 207.118C1225.5 188.067 1242.1 177.457 1267.9 175.438L1267.74 173.444C1241.41 175.505 1224.01 186.429 1215.89 206.364L1217.75 207.118ZM1267.89 175.439L1282.85 174.419L1282.71 172.424L1267.75 173.444L1267.89 175.439ZM1281.78 173.492L1284.84 216.672L1286.84 216.531L1283.78 173.351L1281.78 173.492ZM1285.73 215.607L1256.83 218.667L1257.04 220.656L1285.94 217.596L1285.73 215.607ZM1256.84 218.666C1244.01 219.926 1234.23 223.836 1227.67 230.52C1221.09 237.217 1217.86 246.565 1217.86 258.421H1219.86C1219.86 246.931 1222.98 238.145 1229.09 231.922C1235.22 225.686 1244.48 221.889 1257.04 220.656L1256.84 218.666ZM1217.86 258.421V344.781H1219.86V258.421H1217.86ZM1218.86 343.781H1166.5V345.781H1218.86V343.781Z" fill="black"/>
</svg>
