<svg width="119" height="75" viewBox="0 0 119 75" fill="none" xmlns="http://www.w3.org/2000/svg">
<path d="M69.0072 37.2721C69.0072 43.1654 68.1839 48.4088 66.5372 53.0021C64.9772 57.5954 62.6805 61.4954 59.6472 64.7021C56.7005 67.8221 53.1039 70.2054 48.8572 71.8521C44.6105 73.4121 39.8005 74.1921 34.4272 74.1921C29.4872 74.1921 24.8939 73.4121 20.6472 71.8521C16.4872 70.2054 12.8905 67.8221 9.85721 64.7021C6.82387 61.4954 4.44054 57.5954 2.70721 53.0021C1.06054 48.4088 0.237207 43.1654 0.237207 37.2721C0.237207 29.3854 1.62387 22.7554 4.39721 17.3821C7.17054 11.9221 11.1572 7.76209 16.3572 4.90209C21.5572 2.04209 27.7105 0.612083 34.8172 0.612083C41.4905 0.612083 47.3839 2.04209 52.4972 4.90209C57.6105 7.76209 61.6405 11.9221 64.5872 17.3821C67.5339 22.7554 69.0072 29.3854 69.0072 37.2721ZM19.9972 37.2721C19.9972 41.9521 20.4739 45.8954 21.4272 49.1021C22.4672 52.2221 24.0705 54.6054 26.2372 56.2521C28.4039 57.8121 31.2205 58.5921 34.6872 58.5921C38.1539 58.5921 40.9272 57.8121 43.0072 56.2521C45.1739 54.6054 46.7339 52.2221 47.6872 49.1021C48.7272 45.8954 49.2472 41.9521 49.2472 37.2721C49.2472 32.5921 48.7272 28.6921 47.6872 25.5721C46.7339 22.4521 45.1739 20.1121 43.0072 18.5521C40.8405 16.9921 38.0239 16.2121 34.5572 16.2121C29.4439 16.2121 25.7172 17.9888 23.3772 21.5421C21.1239 25.0088 19.9972 30.2521 19.9972 37.2721ZM118.017 37.2721C118.017 43.1654 117.194 48.4088 115.547 53.0021C113.987 57.5954 111.691 61.4954 108.657 64.7021C105.711 67.8221 102.114 70.2054 97.8672 71.8521C93.6205 73.4121 88.8105 74.1921 83.4372 74.1921C78.4972 74.1921 73.9039 73.4121 69.6572 71.8521C65.4972 70.2054 61.9005 67.8221 58.8672 64.7021C55.8339 61.4954 53.4505 57.5954 51.7172 53.0021C50.0705 48.4088 49.2472 43.1654 49.2472 37.2721C49.2472 29.3854 50.6339 22.7554 53.4072 17.3821C56.1805 11.9221 60.1672 7.76209 65.3672 4.90209C70.5672 2.04209 76.7205 0.612083 83.8272 0.612083C90.5005 0.612083 96.3939 2.04209 101.507 4.90209C106.621 7.76209 110.651 11.9221 113.597 17.3821C116.544 22.7554 118.017 29.3854 118.017 37.2721ZM69.0072 37.2721C69.0072 41.9521 69.4839 45.8954 70.4372 49.1021C71.4772 52.2221 73.0805 54.6054 75.2472 56.2521C77.4139 57.8121 80.2305 58.5921 83.6972 58.5921C87.1639 58.5921 89.9372 57.8121 92.0172 56.2521C94.1839 54.6054 95.7439 52.2221 96.6972 49.1021C97.7372 45.8954 98.2572 41.9521 98.2572 37.2721C98.2572 32.5921 97.7372 28.6921 96.6972 25.5721C95.7439 22.4521 94.1839 20.1121 92.0172 18.5521C89.8505 16.9921 87.0339 16.2121 83.5672 16.2121C78.4539 16.2121 74.7272 17.9888 72.3872 21.5421C70.1339 25.0088 69.0072 30.2521 69.0072 37.2721Z" fill="#191919"/>
</svg>
